# Blender v2.93.1 OBJ File: ''
# www.blender.org
mtllib ziemniak.mtl
o Kostka
v -0.845283 -0.374145 0.744671
v -0.947296 0.627045 0.490387
v -0.632891 -1.169233 0.018732
v -0.915268 0.188572 -0.473652
v 0.784396 -0.211804 0.587281
v 0.732191 0.667287 0.310623
v 0.889393 -0.730852 -0.425205
v 0.656824 0.504854 -0.939963
v -0.888323 -0.939675 0.454480
v -1.096107 0.196137 0.714875
v -1.132857 0.523353 0.003927
v -0.925073 -0.612459 -0.256468
v 0.182479 -1.181179 -0.231908
v -0.168435 0.472937 -0.894699
v 0.939116 -0.095784 -0.870139
v 1.022790 -0.548434 0.092522
v 0.859423 0.715618 -0.394492
v 0.943097 0.262968 0.568169
v -0.048011 -0.306930 0.778910
v -0.104999 0.766034 0.504134
v -1.378695 -0.263188 0.300910
v 0.022775 -0.464207 -0.790543
v 1.309211 0.138619 -0.222691
v -0.092259 0.339638 0.868762
v 0.105700 -1.001228 0.361917
v -0.175184 0.876660 -0.283698
vt 0.375000 0.000000
vt 0.500000 0.000000
vt 0.500000 0.125000
vt 0.375000 0.125000
vt 0.625000 0.000000
vt 0.625000 0.125000
vt 0.625000 0.250000
vt 0.500000 0.250000
vt 0.375000 0.250000
vt 0.500000 0.375000
vt 0.375000 0.375000
vt 0.625000 0.375000
vt 0.625000 0.500000
vt 0.500000 0.500000
vt 0.375000 0.500000
vt 0.500000 0.625000
vt 0.375000 0.625000
vt 0.625000 0.625000
vt 0.625000 0.750000
vt 0.500000 0.750000
vt 0.375000 0.750000
vt 0.500000 0.875000
vt 0.375000 0.875000
vt 0.625000 0.875000
vt 0.625000 1.000000
vt 0.500000 1.000000
vt 0.375000 1.000000
vt 0.125000 0.500000
vt 0.250000 0.500000
vt 0.250000 0.625000
vt 0.125000 0.625000
vt 0.250000 0.750000
vt 0.125000 0.750000
vt 0.750000 0.500000
vt 0.750000 0.625000
vt 0.875000 0.500000
vt 0.875000 0.625000
vt 0.875000 0.750000
vt 0.750000 0.750000
vn -0.3020 -0.2946 0.9066
vn -0.6130 0.2296 0.7560
vn -0.9803 -0.1697 0.1005
vn -0.4993 -0.7323 0.4631
vn -0.4829 0.7625 0.4306
vn -0.7713 0.5969 -0.2207
vn -0.6558 0.1710 -0.7352
vn -0.6621 -0.4203 -0.6204
vn -0.3469 -0.9184 -0.1903
vn -0.1505 -0.4035 -0.9025
vn 0.1562 -0.9446 -0.2885
vn -0.2732 0.3962 -0.8766
vn 0.2819 0.4625 -0.8406
vn 0.5737 -0.1722 -0.8007
vn 0.5999 -0.7042 -0.3796
vn 0.9906 0.1308 -0.0395
vn 0.7769 -0.5395 0.3246
vn 0.5341 0.8162 -0.2201
vn 0.4360 0.8111 0.3898
vn 0.6642 0.2605 0.7007
vn 0.5275 -0.2969 0.7959
vn 0.0623 0.2933 0.9539
vn 0.1351 -0.3030 0.9433
vn 0.0023 0.8742 0.4856
vn 0.2471 -0.7641 0.5958
vn -0.1588 0.9567 -0.2438
usemtl None
s 1
f 1/1/1 10/2/2 21/3/3 9/4/4
f 10/2/2 2/5/5 11/6/6 21/3/3
f 21/3/3 11/6/6 4/7/7 12/8/8
f 9/4/4 21/3/3 12/8/8 3/9/9
f 3/9/9 12/8/8 22/10/10 13/11/11
f 12/8/8 4/7/7 14/12/12 22/10/10
f 22/10/10 14/12/12 8/13/13 15/14/14
f 13/11/11 22/10/10 15/14/14 7/15/15
f 7/15/15 15/14/14 23/16/16 16/17/17
f 15/14/14 8/13/13 17/18/18 23/16/16
f 23/16/16 17/18/18 6/19/19 18/20/20
f 16/17/17 23/16/16 18/20/20 5/21/21
f 5/21/21 18/20/20 24/22/22 19/23/23
f 18/20/20 6/19/19 20/24/24 24/22/22
f 24/22/22 20/24/24 2/25/5 10/26/2
f 19/23/23 24/22/22 10/26/2 1/27/1
f 3/28/9 13/29/11 25/30/25 9/31/4
f 13/29/11 7/15/15 16/17/17 25/30/25
f 25/30/25 16/17/17 5/21/21 19/32/23
f 9/31/4 25/30/25 19/32/23 1/33/1
f 8/13/13 14/34/12 26/35/26 17/18/18
f 14/34/12 4/36/7 11/37/6 26/35/26
f 26/35/26 11/37/6 2/38/5 20/39/24
f 17/18/18 26/35/26 20/39/24 6/19/19
